<svg width="336" height="385" viewBox="0 0 336 385" fill="none" xmlns="http://www.w3.org/2000/svg">
<path fill-rule="evenodd" clip-rule="evenodd" d="M167.902 34.5L170.202 41.7H177.702L171.702 46.1L174.002 53.3L167.902 48.8L161.802 53.3L164.102 46.1L158.002 41.7H165.602L167.902 34.5ZM191.902 42L193.702 47.6H199.602L194.802 51.1L196.702 56.7L191.902 53.2L187.102 56.7L188.902 51.1L184.202 47.6H190.102L191.902 42ZM143.802 42L145.702 47.6H151.602L146.802 51.1L148.602 56.7L143.802 53.2L139.102 56.7L140.902 51.1L136.102 47.6H142.002L143.802 42Z" fill="#ED1C24"/>
<path fill-rule="evenodd" clip-rule="evenodd" d="M249.398 101.2H86.3984V62.0996H249.398V101.2ZM86.3984 154.1H249.298V159.5H86.3984V154.1Z" fill="#58595B"/>
<path d="M86.3984 113.1V263.4C95.3984 268.8 104.998 273.3 115.098 276.9V216.6C115.098 186.9 139.098 163 168.698 163C183.498 163 196.898 168.9 206.598 178.6C216.298 188.4 222.298 201.8 222.298 216.6V276.3C231.798 272.8 240.798 268.5 249.298 263.4V113.1H86.3984ZM236.898 142.2H101.198V136.9H101.398C124.065 131.966 146.698 127.033 169.298 122.1C191.832 127.033 214.332 131.966 236.798 136.9H236.898V142.2Z" fill="#58595B"/>
<path d="M77.3984 96.5V105.1C77.3984 111.2 81.8984 116.2 87.4984 116.2H248.298C253.898 116.2 258.398 111.3 258.398 105.1V96.5H77.3984ZM252.698 105.1C252.698 107.8 250.698 110 248.298 110H87.4984C84.9984 110 82.9984 107.8 82.9984 105.1V102.8H252.698V105.1Z" fill="#58595B"/>
<path d="M161.699 292.9C159.699 292.9 158.133 293.367 156.999 294.3C155.866 295.234 155.299 296.867 155.299 299.2V301.5H165.899V297.7H159.399C159.399 296.9 159.599 296.267 159.999 295.8C160.399 295.4 161.099 295.2 162.099 295.2H164.199V292.9H161.699ZM96.0992 297.7V331.8H92.0992H87.1992C87.3992 330.534 87.4992 329.334 87.4992 328.2C87.4992 325.134 87.1659 322.3 86.4992 319.7C85.8325 317.1 84.7992 314.767 83.3992 312.7C82.5992 311.567 81.6992 310.5 80.6992 309.5C79.6992 308.5 78.5659 307.667 77.2992 307C76.0325 306.267 74.5992 305.7 72.9992 305.3C71.4659 304.9 69.7659 304.7 67.8992 304.7C65.3659 304.7 62.7992 305.067 60.1992 305.8C57.5992 306.534 55.1659 307.5 52.8992 308.7L55.2992 315.1C56.6325 314.367 58.2325 313.634 60.0992 312.9C61.9658 312.234 63.9658 311.9 66.0992 311.9C68.9658 311.9 71.3326 312.334 73.1992 313.2C75.0659 314.067 76.5992 315.367 77.7992 317.1C78.6659 318.5 79.3325 320 79.7992 321.6C80.1992 323.134 80.3992 324.934 80.3992 327C80.3992 327.667 80.3659 328.434 80.2992 329.3C80.2325 330.1 80.1325 330.934 79.9992 331.8H75.3992C75.4659 331.334 75.5659 330.767 75.6992 330.1C75.7659 329.434 75.7992 328.767 75.7992 328.1C75.7992 326.367 75.5325 324.767 74.9992 323.3C74.4659 321.834 73.7325 320.6 72.7992 319.6C71.8659 318.6 70.7326 317.8 69.3992 317.2C68.0659 316.667 66.6325 316.4 65.0992 316.4C61.8325 316.4 59.2659 317.4 57.3992 319.4C55.5326 321.4 54.5992 324.3 54.5992 328.1C54.5992 328.767 54.6659 329.434 54.7992 330.1C54.8659 330.767 54.9658 331.334 55.0992 331.8H50.2992H43.7992V297.7H36.6992V338.9H49.2992H91.0992H108.699H145.099C145.366 338.234 145.599 337.434 145.799 336.5C145.999 335.634 146.199 334.7 146.399 333.7C146.533 332.767 146.666 331.834 146.799 330.9C146.933 329.967 146.999 329.067 146.999 328.2C146.999 325.134 146.666 322.3 145.999 319.7C145.266 317.1 144.199 314.767 142.799 312.7C141.999 311.567 141.099 310.5 140.099 309.5C139.099 308.5 137.966 307.667 136.699 307C135.433 306.267 134.033 305.7 132.499 305.3C130.899 304.9 129.166 304.7 127.299 304.7C124.766 304.7 122.233 305.067 119.699 305.8C117.099 306.534 114.633 307.5 112.299 308.7L114.699 315.1C116.033 314.367 117.633 313.634 119.499 312.9C121.366 312.234 123.366 311.9 125.499 311.9C128.366 311.9 130.766 312.334 132.699 313.2C134.566 314.067 136.066 315.367 137.199 317.1C138.133 318.5 138.799 320 139.199 321.6C139.666 323.134 139.899 324.934 139.899 327C139.899 327.667 139.866 328.434 139.799 329.3C139.666 330.1 139.533 330.934 139.399 331.8H134.799C134.933 331.334 135.033 330.767 135.099 330.1C135.166 329.434 135.199 328.767 135.199 328.1C135.199 326.367 134.933 324.767 134.399 323.3C133.866 321.834 133.133 320.6 132.199 319.6C131.266 318.6 130.133 317.8 128.799 317.2C127.533 316.667 126.133 316.4 124.599 316.4C121.266 316.4 118.699 317.4 116.899 319.4C115.033 321.4 114.099 324.3 114.099 328.1C114.099 328.767 114.133 329.434 114.199 330.1C114.333 330.767 114.433 331.334 114.499 331.8H109.699H103.199V297.7H96.0992ZM120.599 330.1C120.466 329.434 120.399 328.734 120.399 328C120.399 326.4 120.766 325.134 121.499 324.2C122.166 323.267 123.199 322.8 124.599 322.8C125.933 322.8 126.999 323.267 127.799 324.2C128.533 325.134 128.899 326.4 128.899 328C128.899 328.734 128.866 329.434 128.799 330.1C128.666 330.767 128.566 331.334 128.499 331.8H120.799C120.733 331.334 120.666 330.767 120.599 330.1ZM61.0992 330.1C61.0325 329.434 60.9992 328.734 60.9992 328C60.9992 326.4 61.3325 325.134 61.9992 324.2C62.6659 323.267 63.7326 322.8 65.1992 322.8C66.5326 322.8 67.5659 323.267 68.2992 324.2C69.0325 325.134 69.3992 326.4 69.3992 328C69.3992 328.734 69.3659 329.434 69.2992 330.1C69.2325 330.767 69.1658 331.334 69.0992 331.8H61.3992C61.3326 331.334 61.2325 330.767 61.0992 330.1ZM303.299 299.4C302.499 300.134 302.099 301.034 302.099 302.1C302.099 303.367 302.499 304.334 303.299 305C304.166 305.667 305.133 306 306.199 306C307.333 306 308.333 305.667 309.199 305C309.999 304.334 310.399 303.367 310.399 302.1C310.399 301.034 309.999 300.134 309.199 299.4C308.399 298.734 307.399 298.4 306.199 298.4C304.999 298.4 304.033 298.734 303.299 299.4ZM197.399 302.9C196.599 303.567 196.199 304.467 196.199 305.6C196.199 306.867 196.633 307.834 197.499 308.5C198.299 309.1 199.266 309.4 200.399 309.4C201.533 309.4 202.499 309.1 203.299 308.5C204.166 307.834 204.599 306.867 204.599 305.6C204.599 304.467 204.199 303.567 203.399 302.9C202.599 302.167 201.599 301.8 200.399 301.8C199.199 301.8 198.199 302.167 197.399 302.9ZM157.099 338.9H164.299V303.8H157.099V338.9ZM253.999 310.2C252.133 310.734 250.366 311.5 248.699 312.5L251.699 318.7C253.033 317.834 254.233 317.234 255.299 316.9C256.433 316.567 257.699 316.4 259.099 316.4C261.633 316.4 263.633 317.067 265.099 318.4C265.966 319.134 266.599 320.067 266.999 321.2C267.399 322.334 267.599 323.434 267.599 324.5C267.599 325.567 267.499 326.767 267.299 328.1C267.166 329.434 266.966 330.667 266.699 331.8H246.599H237.599H228.599H219.499H213.999V313.9H206.899V338.2H202.799C201.266 338.2 199.866 338.034 198.599 337.7C197.266 337.434 196.133 336.934 195.199 336.2C194.466 335.534 193.933 334.667 193.599 333.6C193.266 332.534 193.099 331.234 193.099 329.7V313.9H185.999V330.6C185.999 332.667 186.233 334.634 186.699 336.5C187.233 338.367 188.133 339.9 189.399 341.1C190.199 341.834 191.033 342.467 191.899 343C192.766 343.534 193.699 343.967 194.699 344.3C195.766 344.634 196.933 344.9 198.199 345.1C199.399 345.234 200.766 345.3 202.299 345.3H213.999V338.9H218.499H227.599H236.599H245.599H278.499H287.499H296.499H309.899V310.3H302.799V331.8H297.499H288.499H279.499H273.999C274.199 330.734 274.366 329.634 274.499 328.5C274.566 327.367 274.599 326.234 274.599 325.1C274.599 322.5 274.199 320.2 273.399 318.2C272.533 316.267 271.399 314.6 269.999 313.2C268.799 311.934 267.333 310.967 265.599 310.3C263.933 309.634 262.033 309.3 259.899 309.3C257.766 309.3 255.799 309.6 253.999 310.2Z" fill="url(#paint0_linear_7916_23)"/>
<path d="M115.901 360.2C115.901 359.5 116.501 358.9 117.301 358.9C118.101 358.9 118.701 359.5 118.701 360.2C118.701 361 118.101 361.6 117.301 361.6C116.601 361.6 115.901 361 115.901 360.2ZM111.001 360.2C111.001 359.5 111.601 358.9 112.401 358.9C113.201 358.9 113.801 359.5 113.801 360.2C113.801 361 113.201 361.6 112.401 361.6C111.601 361.6 111.001 361 111.001 360.2ZM106.801 372.3C106.801 368.4 110.101 365.4 115.201 365.4H116.301V364.1H118.401V377.2H121.601V379.2H115.201C110.701 379.2 106.801 377.1 106.801 372.3ZM116.301 377.2V367.4H114.301C111.601 367.4 108.801 369.4 108.801 372.3C108.801 375.4 111.301 377.2 114.301 377.2H116.301Z" fill="#58595B"/>
<path d="M121.102 377.2H126.602V379.2H121.102V377.2Z" fill="#58595B"/>
<path d="M126.102 377.2H131.602V379.2H126.102V377.2Z" fill="#58595B"/>
<path d="M131.102 377.2H136.602V379.2H131.102V377.2Z" fill="#58595B"/>
<path d="M143.402 383.2C143.402 382.5 144.002 381.9 144.802 381.9C145.602 381.9 146.202 382.5 146.202 383.2C146.202 384 145.602 384.5 144.802 384.5C144.002 384.5 143.402 384 143.402 383.2ZM138.502 383.2C138.502 382.5 139.102 381.9 139.902 381.9C140.702 381.9 141.302 382.5 141.302 383.2C141.302 384 140.602 384.5 139.902 384.5C139.102 384.5 138.502 384 138.502 383.2ZM136.102 377.2H141.502V365.4H143.502V377.2H148.702V379.2H136.102V377.2Z" fill="#58595B"/>
<path d="M148.199 377.2H153.799V379.2H148.199V377.2Z" fill="#58595B"/>
<path d="M153.199 377.2H158.799V379.2H153.199V377.2Z" fill="#58595B"/>
<path d="M158.301 377.2H163.801V379.2H158.301V377.2Z" fill="#58595B"/>
<path fill-rule="evenodd" clip-rule="evenodd" d="M173.601 361.2C173.601 360.5 174.201 359.9 175.001 359.9C175.801 359.9 176.401 360.5 176.401 361.2C176.401 362 175.801 362.6 175.001 362.6C174.201 362.6 173.601 362 173.601 361.2ZM168.701 361.2C168.701 360.5 169.301 359.9 170.101 359.9C170.901 359.9 171.501 360.5 171.501 361.2C171.501 362 170.901 362.6 170.101 362.6C169.301 362.6 168.701 362 168.701 361.2ZM163.301 377.2H167.801C166.501 376.1 165.501 374.5 165.501 372.3C165.501 368.3 168.501 365.4 173.701 365.4H177.101V379.2H163.301V377.2ZM170.601 377.2H175.101V367.5H172.901C170.101 367.5 167.501 369.4 167.501 372.3C167.501 374.5 168.801 376.2 170.601 377.2ZM183.901 361.5C183.901 360.7 184.501 360.1 185.301 360.1C186.101 360.1 186.801 360.7 186.801 361.5C186.801 362.3 186.101 362.9 185.301 362.9C184.501 362.9 183.901 362.3 183.901 361.5ZM179.301 377.2H188.801V371.3C188.801 370.1 188.601 369.3 188.101 368.6C187.501 367.9 186.501 367.5 185.601 367.5H183.801V365.4H185.301C187.201 365.4 188.501 366 189.601 367.2C190.401 368.2 190.901 369.7 190.901 371.2V379.3H179.301V377.2ZM193.801 377.2H200.801C202.301 377.2 203.501 376.8 204.301 376.1C205.101 375.5 205.701 374.4 205.701 372.8V356.7H209.601V358.7H207.701V372.8C207.701 373.5 207.601 374.3 207.401 374.9C208.201 376.4 209.401 377.2 211.901 377.2V379.2C208.501 379.2 207.401 377.7 206.701 376.5C206.434 376.9 206.167 377.234 205.901 377.5C204.501 378.7 202.401 379.2 200.001 379.2H194.001L193.801 377.2ZM198.001 361.5H200.001V375.8H198.001V361.5Z" fill="#58595B"/>
<path d="M211.398 377.2H216.898V379.2H211.398V377.2Z" fill="#58595B"/>
<path d="M216.398 377.2H221.898V379.2H216.398V377.2Z" fill="#58595B"/>
<path fill-rule="evenodd" clip-rule="evenodd" d="M221.398 377.2H225.198V358.6H227.298V379.2H221.398V377.2ZM233.098 358.6H235.098V379.3H233.098V358.6Z" fill="#58595B"/>
<path d="M242.602 379.6H309.702V378.9H242.602V379.6Z" fill="url(#paint1_linear_7916_23)"/>
<path d="M36.6016 379.6H103.802V378.9H36.6016V379.6Z" fill="url(#paint2_linear_7916_23)"/>
<path d="M248.798 45.2C248.998 46.1333 249.298 47.1667 249.698 48.3C252.798 106.5 329.898 167.4 247.898 264C298.698 233.867 327.998 186.533 335.798 122C309.298 137.2 282.898 116.4 256.398 59.7C256.465 59.7667 256.565 59.8667 256.698 60C255.698 57 254.998 54 254.698 50.8C253.398 38.6 257.598 26.3 266.198 17.5C259.132 26.8333 256.132 37.8667 257.198 50.6C277.665 43.6 286.698 33.1333 284.298 19.2C281.965 9.53333 283.032 3.13333 287.498 0C257.632 5.33333 244.732 20.4 248.798 45.2Z" fill="url(#paint3_linear_7916_23)"/>
<path d="M288.301 87.7996C287.401 98.9996 295.701 108.9 306.901 109.8C318.201 110.8 328.101 102.4 329.001 91.1996C329.901 79.8996 321.601 70.0996 310.301 69.0996C309.768 69.0996 309.201 69.0996 308.601 69.0996C298.101 69.0996 289.201 77.0996 288.301 87.7996Z" fill="url(#paint4_linear_7916_23)"/>
<path d="M51.5 19.2C49.1 33.1333 58.1333 43.6 78.6 50.6C79.6666 37.8667 76.6666 26.8333 69.6 17.5C78.2 26.3 82.4 38.6 81.1 50.8C80.8 54 80.1 57 79.1 60C79.2333 59.8667 79.3334 59.7667 79.4 59.7C52.9 116.4 26.4 137.2 0 122C7.8 186.533 37.1 233.867 87.9 264C5.90002 167.4 83 106.5 86.1 48.3C86.5 47.1667 86.8 46.1333 87 45.2C91.0667 20.4 78.1667 5.33333 48.3 0C52.7667 3.13333 53.8333 9.53333 51.5 19.2Z" fill="url(#paint5_linear_7916_23)"/>
<path d="M25.4012 69.0996C14.2012 70.0996 5.90116 79.8996 6.80116 91.1996C7.70116 102.4 17.6012 110.8 28.8012 109.8C40.1012 108.9 48.4012 98.9996 47.5012 87.7996C46.6012 77.0996 37.7012 69.0996 27.2012 69.0996C26.6012 69.0996 26.0012 69.0996 25.4012 69.0996Z" fill="url(#paint6_linear_7916_23)"/>
<defs>
<linearGradient id="paint0_linear_7916_23" x1="170.582" y1="201.565" x2="175.61" y2="408.437" gradientUnits="userSpaceOnUse">
<stop stop-color="#006838"/>
<stop offset="1" stop-color="#00A79D"/>
</linearGradient>
<linearGradient id="paint1_linear_7916_23" x1="242.575" y1="379.221" x2="309.737" y2="379.221" gradientUnits="userSpaceOnUse">
<stop stop-color="#006838"/>
<stop offset="1" stop-color="#00A79D"/>
</linearGradient>
<linearGradient id="paint2_linear_7916_23" x1="36.6106" y1="379.221" x2="103.773" y2="379.221" gradientUnits="userSpaceOnUse">
<stop stop-color="#006838"/>
<stop offset="1" stop-color="#00A79D"/>
</linearGradient>
<linearGradient id="paint3_linear_7916_23" x1="247.916" y1="131.97" x2="335.797" y2="131.97" gradientUnits="userSpaceOnUse">
<stop stop-color="#006838"/>
<stop offset="1" stop-color="#00A79D"/>
</linearGradient>
<linearGradient id="paint4_linear_7916_23" x1="288.229" y1="89.4896" x2="329.063" y2="89.4896" gradientUnits="userSpaceOnUse">
<stop stop-color="#006838"/>
<stop offset="1" stop-color="#00A79D"/>
</linearGradient>
<linearGradient id="paint5_linear_7916_23" x1="87.861" y1="131.97" x2="-0.0199991" y2="131.97" gradientUnits="userSpaceOnUse">
<stop stop-color="#006838"/>
<stop offset="1" stop-color="#00A79D"/>
</linearGradient>
<linearGradient id="paint6_linear_7916_23" x1="47.5532" y1="89.4896" x2="6.71916" y2="89.4896" gradientUnits="userSpaceOnUse">
<stop stop-color="#006838"/>
<stop offset="1" stop-color="#00A79D"/>
</linearGradient>
</defs>
</svg>
