<svg id="Layer_1" data-name="Layer 1" xmlns="http://www.w3.org/2000/svg" viewBox="0 0 386.33 391.46"><defs><style>.cls-1{fill:#488f61;}</style></defs><title>ring</title><path class="cls-1" d="M354.41,439.89a12.14,12.14,0,0,1-8.16-3.85c-5.16-4.94-10.31-9.9-15.69-14.59-4.4-3.85-7.86-8.2-9.58-13.86a5.66,5.66,0,0,0-1.27-1.95,65.6,65.6,0,0,1-11.37-17.11,79.25,79.25,0,0,0-5.32-9.4,110.4,110.4,0,0,1-15.42-42.55,14.49,14.49,0,0,0-.76-3.05c-4.51-11.52-5.57-23.65-5.36-35.77.22-13.35,1.26-26.72,2.68-40,.61-5.77,2.95-11.38,4.71-17,2.33-7.43,4.74-14.84,7.35-22.18a57.45,57.45,0,0,1,4.08-8.2,54.07,54.07,0,0,1,4-6.31c2-2.61,4.24-5,6.17-7.58a19.83,19.83,0,0,0,3.33-5.86,27.93,27.93,0,0,1,6.87-12,26.79,26.79,0,0,0,2.4-2.61c7.82-10.49,18-18.64,27.14-27.87a55.57,55.57,0,0,1,15.13-10.5,42.3,42.3,0,0,0,6.81-4.62c5.66-4.36,11.53-8.18,18.78-9.42a16.66,16.66,0,0,0,5-2.26c13.63-7.64,28.33-11.92,43.72-14,7-1,14-1.78,21.06-2.7,3.57-.47,6.9-.22,9.86,2.18a5.16,5.16,0,0,0,5.75.76c4.47-2.23,9.11-2.26,13.84-1.41,15.73,2.85,31.49,5.55,47.17,8.65,15.28,3,29.44,8.72,42.05,18.19,6.59,5,13.64,9.31,20.63,13.71,11.22,7.07,20.32,16.29,28.06,27a91.07,91.07,0,0,1,6.43,9.17c2.27,4.09,4,8.47,5.9,12.76a1.52,1.52,0,0,1-.63,1.35,7.68,7.68,0,0,1-3.08.22c-.58-.1-1.06-.86-1.57-1.31-2.39,2.13-2.93,4.37-1.17,7,.58.87,1,1.86,1.46,2.78,2.44,4.41,5,8.77,7.31,13.23a26.38,26.38,0,0,0,5.64,7,73.07,73.07,0,0,1,9.25,10.1,101.85,101.85,0,0,1,8,13.08,18.11,18.11,0,0,1,1.85,7.14c.5,8.71.74,17.43-.71,26.1a23.47,23.47,0,0,0-.1,5.1,181.78,181.78,0,0,1-2.25,39.95c-.22,1.35-.84,2.63-1.05,4a63.18,63.18,0,0,0-1,8.31,37.53,37.53,0,0,1-1.1,9.27c-.82,3-.43,6.34-.31,9.52a4.11,4.11,0,0,0,1.46,2.9c3.12,2.14,2,5,1.49,7.66-.77,3.83-3,6.95-5.37,9.93a2.19,2.19,0,0,1-1.53.62c-3.24.1-5.3,1.85-6.89,4.51-4.94,8.26-9.95,16.48-14.91,24.73a10.64,10.64,0,0,1-5.35,4.9l-.61-1.35c-.09,0-.23.08-.25.16a28.2,28.2,0,0,0-1.24,3.7,7.08,7.08,0,0,1-2.39,4.13c-1,.85-1.41,2.29-2.15,3.42a97.5,97.5,0,0,1-17.24,19.59c-13.26,11.62-28.31,20.49-43.85,28.65-10.35,5.45-21.48,8.67-32.53,12.18-3.38,1.07-6.76,2.11-10.11,3.24a7.19,7.19,0,0,1-6.06-.28c-2.33-1.23-4.07-.87-5.84,1.06a4.17,4.17,0,0,1-3.5,1.25c-9.38,0-18.76,0-28.13.28-3.7.12-7.36,1.23-11.07,1.67a40,40,0,0,1-7.26.14c-1.11-.07-2.17-.88-3.3-1.37.28-.48.36-.68.4-.67,2.9.57,4.26-1.34,5.6-3.37,1-1.47.75-2.06-1-2.37-7.21-1.3-14.43-2.56-21.63-3.94-2.1-.4-4.13-1.15-6.35-1.78a10.2,10.2,0,0,1,.71,2.26,11.57,11.57,0,0,1-.33,2.39c-.29-.24-.46-.32-.47-.41-.48-3.86-2.9-5.51-6.43-6.85-11.76-4.46-23.36-9.31-35-14.07a15.6,15.6,0,0,1-3.9-2.25c-4.44-3.57-9.51-6-14.57-8.48-2.88-1.42-5.31-3.73-7.94-5.65a20,20,0,0,0-2.18-1.64c-2.25-1.2-4.54-2.3-6.82-3.44ZM622.85,236.8l-.65-.45c.1-.64.18-1.28.29-1.91,1-5.42,2.44-10.8,1.3-16.35a6.67,6.67,0,0,0-1.76-3.31c-12.84-12.44-27.56-22.39-42.53-32a70,70,0,0,0-18.6-8.8,46.05,46.05,0,0,1-15.27-7.84,67.61,67.61,0,0,0-32.3-13.54c-8-1-16.18-1.4-24.28-2a31.83,31.83,0,0,0-5.69-.08c-9.06,1-18.1,2-27.15,3.11a65.55,65.55,0,0,0-18.4,4.74c-12.75,5.52-25.53,10.95-38.28,16.46-4.55,2-9.2,3.6-14.24,3.11a16.64,16.64,0,0,0-9,1.66c-3.08,1.45-6.19,2.82-9.36,4.06-.67.27-2.15.08-2.33-.32a3,3,0,0,1,.23-2.59,9.71,9.71,0,0,1,2.94-2.53c3.07-1.78,3.15-2,.76-4.66-.22-.24-.44-.48-.67-.71-2.59-2.53-4.66-2.54-7,.26-1.8,2.15-3.34,4.53-5,6.82-3.17,4.45-6.35,9-10.9,12.06s-6.94,7.55-8.91,12.4a4,4,0,0,0,.69,4.57c.34.36,1.14.72,1.5.56,2.27-1,4.49-2.07,6.68-3.21,1.22-.63,2.3-1.52,3.53-2.13,2-1,3-.37,3.18,1.83.14,1.63.06,3.28.11,4.91.07,2.28.46,4.52,2.22,6.13a4.78,4.78,0,0,1,1.23,5.72,29.92,29.92,0,0,1-2.67,6.09c-3,4.52-6.1,9-9.49,13.24-3.83,4.81-7.34,9.84-9.26,15.65-3.21,9.69-6.54,19.39-8.74,29.33-3.08,13.91-4,28.15-4.61,42.39a107.3,107.3,0,0,0,6.29,41.14A218.65,218.65,0,0,0,342,403.12a15.38,15.38,0,0,1,2.05,9.24,3.27,3.27,0,0,0,1.21,3,127.27,127.27,0,0,0,27.18,20.67c6.94,3.93,14.35,7,21.41,10.77A102.22,102.22,0,0,0,426,458c14.06,2.23,28.08,5,42.37,4.49,10.46-.4,20.91-1.65,31.33-2.81A47.36,47.36,0,0,0,522.79,451c3-2.19,6.33-4,9.53-5.89,2.81-1.69,5.73-3.21,8.44-5,5.36-3.61,8.85-8.53,9.69-15.07a29.82,29.82,0,0,1,4.36-12.3c2.45-3.88,5.13-7.61,7.79-11.34,1.58-2.22,2.49-2.25,4.64-.46s3.78,1.48,4.72-1.18c.37-1.08.88-1.42,2-1.16a42.74,42.74,0,0,0,4.67.7c5.74.68,11.5,1.28,17.22,0,11.09-2.54,21.42-17.59,20.41-29.6a5.87,5.87,0,0,1,.26-3.06c3-5.58,6.05-11.17,9.38-16.57,2.15-3.5,3.86-6.78,1-10.54,4-3.75,4-3.76,5.46-9.45.34-1.3.73-3,1.68-3.65,2.37-1.66,1.74-3.6,1.26-5.69-.18-.74-.27-1.5-.42-2.33,2.76,1.14,3.78.78,4.13-1.32.44-2.64,1-5.27,1.32-7.93a104.07,104.07,0,0,0-1.05-29.38,59.71,59.71,0,0,0-2.51-9.69c-3-8.45-3.89-17.22-4.29-26.09a19.4,19.4,0,0,0-2.77-9.71c-1.71-2.71-2.39-2.73-4.37-.18C624.6,235,623.69,235.89,622.85,236.8ZM300.22,265.69c1.88,1,1.95,1,2.86-1.1,7.4-16.88,13.51-34.42,24.85-49.31a2.8,2.8,0,0,0,.49-.85c.59-1.92,1.49-3.83,1.64-5.79a14.88,14.88,0,0,1,3.23-8.25c2.22-2.89,4.11-6,6.22-9,.89-1.26,1.76-2.83,3-3.49,3.81-2,6.31-5,8.39-8.6a47.68,47.68,0,0,1,13.85-15.61c.06,0,0-.22,0-.29-5.21-.94-10.13-.47-14.6,2.74a40,40,0,0,1-5.58,3.29A26.56,26.56,0,0,0,333.21,180c-4.64,7.66-10,14.86-14.93,22.38-6.68,10.27-13,20.66-15.82,32.9-1.3,5.78-3.9,11.25-5.6,16.95-1.22,4.13-1.93,8.42-2.86,12.64l.48.12,4.35-5.06C299.48,262,302,263.3,300.22,265.69ZM511.78,474c-4.35.39-8.47.34-12.38,1.23a59.33,59.33,0,0,1-19.09,1.55,28.43,28.43,0,0,0-4.21.22l0,.14,20.38,2.22a12.93,12.93,0,0,0-2.38.58,4.5,4.5,0,0,0-1.41,1.17,16.24,16.24,0,0,0,2.82,3.75c.54.45,1.94.17,2.81-.15a27.57,27.57,0,0,0,4.35-2.17,2.23,2.23,0,0,0,1-1.43c0-.34-.62-.83-1.06-1.12a6,6,0,0,0-1.37-.5l-.1-.54Zm8.28-1.51c15.3-.6,29-6.23,42.1-13.48Zm-59.37,16.84c5.11,0,10.17.08,15.07-1.77a3.25,3.25,0,0,0-1.48-.83c-1.9-.47-3.82-.89-5.74-1.31-5.2-1.13-5.2-1.12-7.93,3.51C460.59,488.92,460.63,489,460.69,489.28Zm-78.4-339.42c1.62-.05,3.32-.15,5-.15,2.7,0,2.91-.21,2.72-2.84a15.14,15.14,0,0,1,.15-2c-.75-.24-1.5-.43-2.21-.73-1.77-.73-3-.33-3.73,1.52C383.59,147.25,382.79,148.79,382.29,149.86Z" transform="translate(-281.45 -104.44)"/><path class="cls-1" d="M354.36,439.84c1,1.08,1.82,2.51,3.05,3.19,6.54,3.63,11.92,8.77,17.83,13.22,15.77,11.87,32.34,22.37,51.52,28,3.58,1.05,7.21,2,10.87,2.69,2.28.43,4.68.24,7,.46a26.87,26.87,0,0,1,3.38.74l-.13.86H435.33l4.17,4.76-.41.41a6.78,6.78,0,0,1-4.73-4,2.45,2.45,0,0,0-1.39-1.32c-15.46-2.55-29.33-9-41.85-18.12-12.24-8.9-24-18.46-35.94-27.77-.94-.74-2.11-1.64-.77-3.06Z" transform="translate(-281.45 -104.44)"/><path class="cls-1" d="M440.4,494.28c1.93.16,3.87.31,5.81.49a7,7,0,0,0,6.38-2.27c.53-.6,1.57-.77,2.77-1.31C453.58,496.22,444.56,497.18,440.4,494.28Z" transform="translate(-281.45 -104.44)"/></svg>